<svg width="20" height="20" viewBox="0 0 20 20" fill="none" xmlns="http://www.w3.org/2000/svg">
<path d="M11.375 5.71666V14.2833C11.3758 14.6042 11.3017 14.9208 11.1583 15.2083C11.021 15.4983 10.8079 15.7459 10.5417 15.925C10.2728 16.1057 9.9572 16.2042 9.63332 16.2083C9.31261 16.2084 8.99919 16.1127 8.73332 15.9333L5.39999 13.7417C5.33532 13.6998 5.26032 13.6768 5.18332 13.675H3.62499C3.38295 13.673 3.14426 13.6182 2.92552 13.5146C2.70677 13.411 2.51322 13.261 2.35832 13.075C2.04306 12.7026 1.8716 12.2296 1.87499 11.7417V8.25833C1.87359 7.77327 2.04493 7.30356 2.35832 6.93333C2.51322 6.74734 2.70677 6.59732 2.92552 6.49371C3.14426 6.39009 3.38295 6.33536 3.62499 6.33333H5.20832C5.289 6.33065 5.36717 6.3046 5.43332 6.25833L8.76666 4.06666C9.03401 3.89045 9.34647 3.79497 9.66666 3.79166C9.99053 3.79584 10.3062 3.8943 10.575 4.075C10.84 4.25583 11.0525 4.50333 11.1917 4.79166C11.3233 5.08166 11.3858 5.39833 11.375 5.71666ZM13.5417 13.7833C13.3768 13.7789 13.2195 13.7136 13.1 13.6C12.9829 13.4828 12.9172 13.324 12.9172 13.1583C12.9172 12.9927 12.9829 12.8339 13.1 12.7167C13.4563 12.3613 13.7389 11.9392 13.9318 11.4745C14.1247 11.0097 14.224 10.5115 14.224 10.0083C14.224 9.50516 14.1247 9.00692 13.9318 8.54218C13.7389 8.07744 13.4563 7.65532 13.1 7.3C13.0386 7.24278 12.9893 7.17378 12.9552 7.09711C12.921 7.02045 12.9026 6.93769 12.9012 6.85377C12.8997 6.76985 12.9151 6.68649 12.9466 6.60867C12.978 6.53084 13.0248 6.46015 13.0841 6.4008C13.1435 6.34145 13.2142 6.29466 13.292 6.26323C13.3698 6.23179 13.4532 6.21636 13.5371 6.21784C13.621 6.21932 13.7038 6.23769 13.7804 6.27185C13.8571 6.30601 13.9261 6.35526 13.9833 6.41666C14.4565 6.88747 14.832 7.44715 15.0882 8.06352C15.3444 8.6799 15.4763 9.34082 15.4763 10.0083C15.4763 10.6758 15.3444 11.3368 15.0882 11.9531C14.832 12.5695 14.4565 13.1292 13.9833 13.6C13.8638 13.7136 13.7065 13.7789 13.5417 13.7833Z" fill="white"/>
<path d="M16.1043 15.65C16.0221 15.6509 15.9406 15.6351 15.8647 15.6036C15.7888 15.572 15.7201 15.5255 15.6627 15.4667C15.6037 15.4092 15.5568 15.3405 15.5248 15.2647C15.4928 15.1888 15.4763 15.1073 15.4763 15.025C15.4763 14.9427 15.4928 14.8612 15.5248 14.7853C15.5568 14.7095 15.6037 14.6408 15.6627 14.5833C16.8718 13.3643 17.5502 11.7169 17.5502 10C17.5502 8.28305 16.8718 6.63566 15.6627 5.41666C15.6037 5.35921 15.5568 5.29053 15.5248 5.21467C15.4928 5.13882 15.4763 5.05733 15.4763 4.975C15.4763 4.89267 15.4928 4.81118 15.5248 4.73532C15.5568 4.65947 15.6037 4.59079 15.6627 4.53333C15.7798 4.41629 15.9387 4.35055 16.1043 4.35055C16.2699 4.35055 16.4288 4.41629 16.546 4.53333C17.9968 5.98774 18.8116 7.95819 18.8116 10.0125C18.8116 12.0668 17.9968 14.0373 16.546 15.4917C16.4254 15.6006 16.2667 15.6575 16.1043 15.65Z" fill="white"/>
</svg>
